name rise45.9887peak57.8056fall74.9286.mot
datacolumns 19
datarows 12
range 11.54329500000000 11.56162800000000
endheader
time	ground_force1_vx	ground_force1_vy	ground_force1_vz	ground_force1_px	ground_force1_py	ground_force1_pz	ground_force2_vx	ground_force2_vy	ground_force2_vz	ground_force2_px	ground_force2_py	ground_force2_pz	ground_torque1_x	ground_torque1_y	ground_torque1_z	ground_torque2_x	ground_torque2_y	ground_torque2_z	
11.54329500000000	63.23637900000000	766.47989299999995	48.15679700000000	0.36598500000000	0.00000000000000	0.09274500000000	0.00000000000000	0.00000000000000	0.00000000000000	0.00000000000000	0.00000000000000	0.00000000000000	0.00000000000000	23.14666900000000	0.00000000000000	0.00000000000000	0.00000000000000	0.00000000000000	
11.54496100000000	62.92087500000000	771.10272699999996	48.34761200000000	0.36573000000000	0.00000000000000	0.09270700000000	0.00000000000000	0.00000000000000	0.00000000000000	0.00000000000000	0.00000000000000	0.00000000000000	0.00000000000000	23.26594500000000	0.00000000000000	0.00000000000000	0.00000000000000	0.00000000000000	
11.54662200000000	62.59759100000000	775.55865100000005	48.54231000000000	0.36550800000000	0.00000000000000	0.09267000000000	0.00000000000000	0.00000000000000	0.00000000000000	0.00000000000000	0.00000000000000	0.00000000000000	0.00000000000000	23.39113500000000	0.00000000000000	0.00000000000000	0.00000000000000	0.00000000000000	
11.54828900000000	62.26676800000000	779.84221100000002	48.74032500000000	0.36531600000000	0.00000000000000	0.09263400000000	0.00000000000000	0.00000000000000	0.00000000000000	0.00000000000000	0.00000000000000	0.00000000000000	0.00000000000000	23.52179700000000	0.00000000000000	0.00000000000000	0.00000000000000	0.00000000000000	
11.54995500000000	61.92861300000000	783.94824700000004	48.94101100000000	0.36515400000000	0.00000000000000	0.09259800000000	0.00000000000000	0.00000000000000	0.00000000000000	0.00000000000000	0.00000000000000	0.00000000000000	0.00000000000000	23.65742600000000	0.00000000000000	0.00000000000000	0.00000000000000	0.00000000000000	
11.55162400000000	61.58330300000000	787.87191199999995	49.14364900000000	0.36501900000000	0.00000000000000	0.09256200000000	0.00000000000000	0.00000000000000	0.00000000000000	0.00000000000000	0.00000000000000	0.00000000000000	0.00000000000000	23.79746700000000	0.00000000000000	0.00000000000000	0.00000000000000	0.00000000000000	
11.55328900000000	61.23098500000000	791.60869500000001	49.34745300000000	0.36490900000000	0.00000000000000	0.09252700000000	0.00000000000000	0.00000000000000	0.00000000000000	0.00000000000000	0.00000000000000	0.00000000000000	0.00000000000000	23.94131200000000	0.00000000000000	0.00000000000000	0.00000000000000	0.00000000000000	
11.55495800000000	60.87177900000000	795.15443500000003	49.55158100000000	0.36482100000000	0.00000000000000	0.09249200000000	0.00000000000000	0.00000000000000	0.00000000000000	0.00000000000000	0.00000000000000	0.00000000000000	0.00000000000000	24.08831100000000	0.00000000000000	0.00000000000000	0.00000000000000	0.00000000000000	
11.55662300000000	60.50578300000000	798.50534200000004	49.75513900000000	0.36475500000000	0.00000000000000	0.09245700000000	0.00000000000000	0.00000000000000	0.00000000000000	0.00000000000000	0.00000000000000	0.00000000000000	0.00000000000000	24.23777400000000	0.00000000000000	0.00000000000000	0.00000000000000	0.00000000000000	
11.55828700000000	60.13307300000000	801.65801199999999	49.95719500000000	0.36470700000000	0.00000000000000	0.09242300000000	0.00000000000000	0.00000000000000	0.00000000000000	0.00000000000000	0.00000000000000	0.00000000000000	0.00000000000000	24.38897700000000	0.00000000000000	0.00000000000000	0.00000000000000	0.00000000000000	
11.55995800000000	59.75370600000000	804.60943799999995	50.15678100000000	0.36467600000000	0.00000000000000	0.09238900000000	0.00000000000000	0.00000000000000	0.00000000000000	0.00000000000000	0.00000000000000	0.00000000000000	0.00000000000000	24.54116700000000	0.00000000000000	0.00000000000000	0.00000000000000	0.00000000000000	
11.56162800000000	59.36772300000000	807.35702700000002	50.35290600000000	0.36466000000000	0.00000000000000	0.09235600000000	0.00000000000000	0.00000000000000	0.00000000000000	0.00000000000000	0.00000000000000	0.00000000000000	0.00000000000000	24.69357100000000	0.00000000000000	0.00000000000000	0.00000000000000	0.00000000000000	
